<svg xmlns="http://www.w3.org/2000/svg" xmlns:xlink="http://www.w3.org/1999/xlink" width="80" height="80" viewBox="0 0 80 80"><defs><style>.a{fill:none;}.b{clip-path:url(#a);}.c{fill:#fff;opacity:0.2;}.d{fill:#5969ff;}.e{fill:#eec627;}</style><clipPath id="a"><rect class="a" width="80" height="80"/></clipPath></defs><g class="b"><rect class="a" width="80" height="80"/><circle class="c" cx="40" cy="40" r="40"/><path class="d" d="M78,18H70V54H18v8a4,4,0,0,0,4,4H66L82,82V22A4,4,0,0,0,78,18Z" transform="translate(-2 -2)"/><path class="e" d="M62,42V6a4,4,0,0,0-4-4H6A4,4,0,0,0,2,6V62L18,46H58a4,4,0,0,0,4-4" transform="translate(-2 -2)"/></g></svg>